<svg id="Capa_1" enable-background="new 0 0 510.719 510.719" height="512" viewBox="0 0 510.719 510.719" width="512" xmlns="http://www.w3.org/2000/svg"><path id="XMLID_1505_" d="m510.719 349.488-47.613-82.482 30.639-53.378-26.018-14.935-30.614 53.334h-42.091c-6.268-18.466-23.76-31.796-44.318-31.796-3.138 0-6.203.316-9.169.908l-21.115-36.571 21.111-36.563c2.968.592 6.034.908 9.173.908 25.805 0 46.799-20.994 46.799-46.798s-20.994-46.798-46.799-46.798c-3.137 0-6.201.316-9.167.907l-29.778-51.566h-112.53l-47.61 82.46h-78.299l-35.211-57.461-25.579 15.675 34.937 57.015-47.467 82.221 29.786 51.604c-7.249 8.245-11.66 19.043-11.66 30.859 0 25.804 20.994 46.798 46.798 46.798 20.559 0 38.051-13.332 44.318-31.8h42.376l38.799 67.2-39.776 64.383 25.522 15.768 40.09-64.89h78.064l21.174 36.684c-7.204 8.234-11.585 18.998-11.585 30.772 0 25.805 20.993 46.798 46.798 46.798 20.557 0 38.048-13.329 44.317-31.794h42.296l35.565 59.113 25.705-15.466-35.38-58.804zm-73.581 67.46h-42.104c-.031-.093-.067-.175-.099-.266-6.344-18.331-23.769-31.536-44.23-31.536-3.179 0-6.284.322-9.287.929l-21.057-36.482 21.174-36.673c2.967.592 6.032.908 9.171.908 20.453 0 37.873-13.195 44.223-31.515.034-.098.073-.186.107-.285h42.104l38.942 67.46zm-69.634-149.918c0 9.262-7.536 16.798-16.799 16.798s-16.798-7.536-16.798-16.798c0-9.263 7.535-16.798 16.798-16.798s16.799 7.536 16.799 16.798zm0-164.914c0 9.262-7.536 16.798-16.799 16.798s-16.798-7.536-16.798-16.798 7.535-16.798 16.798-16.798 16.799 7.536 16.799 16.798zm-150.954-67.458h77.891l21.122 36.576c-.155.177-.295.356-.439.535-6.985 8.178-11.217 18.775-11.217 30.347 0 11.575 4.233 22.173 11.22 30.352.141.176.279.352.431.525l-21.119 36.576h-42.367c-.051-.149-.108-.289-.16-.436-6.395-18.238-23.774-31.357-44.168-31.357-3.084 0-6.096.308-9.015.88-.011.002-.021.001-.032.003l-21.098-36.54zm7.99 149.91v.062c-.032 9.236-7.552 16.741-16.795 16.741-9.262 0-16.798-7.536-16.798-16.798s7.536-16.798 16.798-16.798c9.247 0 16.771 7.511 16.796 16.753-.001.013-.001.027-.001.04zm-150.959-67.45h77.898l21.117 36.579c-.09.102-.16.207-.243.31-7.098 8.207-11.406 18.889-11.406 30.566 0 11.679 4.311 22.364 11.411 30.572.082.101.151.204.239.305l-21.118 36.579h-42.224c-.044-.13-.095-.247-.14-.374-6.376-18.272-23.772-31.422-44.19-31.422-3.131 0-6.189.315-9.149.904-.01.002-.02-.002-.03 0l-21.106-36.568zm-8.656 166.71c-9.263 0-16.798-7.536-16.798-16.798 0-9.263 7.536-16.798 16.798-16.798s16.798 7.536 16.798 16.798-7.536 16.798-16.798 16.798zm133.773-53.339c.006.001.012-.001.017 0 2.923.574 5.94.883 9.029.883 20.444 0 37.856-13.183 44.213-31.49.038-.107.08-.204.117-.312h42.365l21.121 36.58c-.166.189-.317.381-.47.572-6.966 8.173-11.184 18.755-11.184 30.31 0 11.66 4.296 22.329 11.376 30.532.07.084.135.169.207.253l-21.172 36.674h-77.767l-38.949-67.46zm152.008 218.254c-9.263 0-16.798-7.536-16.798-16.798s7.535-16.798 16.798-16.798 16.799 7.536 16.799 16.798c-.001 9.262-7.537 16.798-16.799 16.798z"/></svg>