<svg id="Capa_1" enable-background="new 0 0 512.053 512.053" height="512" viewBox="0 0 512.053 512.053" width="512" xmlns="http://www.w3.org/2000/svg"><path id="XMLID_404_" d="m509.217 336.338-10.945-25.848c-5.574-13.16-18.41-21.664-32.702-21.664h-45.196l31.939-31.939c10.279-10.278 13.259-25.57 7.591-38.958l-10.944-25.847c-5.573-13.161-18.409-21.666-32.702-21.666h-45.226l18.782-18.782c.002-.002.004-.005.006-.007l13.15-13.15c10.279-10.28 13.259-25.571 7.59-38.958l-10.943-25.846c-5.573-13.162-18.409-21.666-32.702-21.666h-18.805c-5.523 0-10 4.477-10 10s4.477 10 10 10h11.565l-37.614 37.614h-1.695c-18.711 0-35.595-11.1-43.013-28.277l-10.054-23.28c-5.944-13.853-3.097-31.07 6.771-40.937 3.905-3.905 3.905-10.237 0-14.143-3.905-3.905-10.237-3.905-14.143 0-15.666 15.667-20.193 41.56-11.008 62.966.001.003.003.005.004.009.002.004.003.009.005.013l10.063 23.301c8.374 19.391 25.203 33.344 45.086 38.331l-4.015 4.015c-10.323 10.323-13.273 25.662-7.516 39.077l23.964 55.847c5.601 13.053 18.398 21.488 32.603 21.488h2.289l-1.566 1.566c-10.322 10.323-13.272 25.662-7.516 39.077l22.026 51.331-2.264-1.709c-11.408-8.61-26.775-9.557-39.152-2.411l-39.141 22.598 11.69-43.629c3.763-14.042-1.303-28.774-12.905-37.535l-22.4-16.91c-11.406-8.613-26.776-9.56-39.154-2.413l-39.167 22.613 6.875-25.657v-.001l4.816-17.972c3.762-14.042-1.303-28.774-12.905-37.534l-22.401-16.912c-11.407-8.612-26.775-9.558-39.154-2.412l-88.229 50.939c-9.235-8.906-13.007-22.072-9.617-34.724 1.43-5.334-1.736-10.818-7.071-12.248-5.335-1.431-10.818 1.736-12.248 7.071-5.917 22.079 2.091 45.187 20.4 58.871.269.201.547.382.829.552.238.216.478.431.739.625l20.366 15.148c16.947 12.605 38.499 16.275 58.211 10.653l-1.47 5.485c-3.778 14.101 1.336 28.859 13.029 37.599l48.678 36.384c6.274 4.689 13.74 7.068 21.238 7.067 6.1 0 12.222-1.574 17.74-4.761l1.983-1.145-.574 2.141c-3.778 14.101 1.336 28.858 13.029 37.6l48.678 36.383c6.274 4.689 13.739 7.068 21.238 7.068 6.1-.001 12.223-1.575 17.74-4.761l4.6-2.656c-.196 20.921 9.454 40.964 26.827 53.949l15.157 11.328c11.812 8.829 25.866 13.308 39.984 13.307 11.484 0 23.011-2.964 33.398-8.962l5.017-2.896c4.783-2.761 6.422-8.877 3.66-13.66s-8.878-6.423-13.66-3.66l-5.017 2.896c-12.999 7.505-28.535 8.224-41.917 2.446l23.196-86.569c.238 8.271 2.021 16.592 5.438 24.553l7.462 17.39c10.545 24.574 34.638 40.453 61.379 40.453h5.793c5.523 0 10-4.478 10-10s-4.477-10-10-10h-5.79c-15.01 0-28.824-7.146-37.524-18.84l69.851-69.85c10.279-10.28 13.258-25.572 7.59-38.959zm-50.856-27.512-37.184 37.184h-22.288c-6.196 0-11.78-3.68-14.224-9.375l-3.813-8.887c.834-.45 1.62-1.023 2.325-1.728l17.193-17.193h57.991zm-69.532-184.491-49.011 49.011c-.001.001-.002.002-.003.003l-17.049 17.049-11.838-27.588c-2.511-5.853-1.224-12.544 3.28-17.047l66.085-66.085c.336.574.645 1.17.909 1.794l10.943 25.846c2.476 5.847 1.174 12.527-3.316 17.017zm-39.713 103.697c-6.197 0-11.78-3.68-14.224-9.375l-3.633-8.467 19.774-19.774h57.986l-37.614 37.615h-22.289zm14.864 35.708 18.636-18.636c.001-.001.002-.002.002-.002l47.015-47.015c.336.574.645 1.17.909 1.794l10.944 25.846c2.476 5.848 1.174 12.528-3.316 17.018l-5.681 5.681c-.015.014-.031.026-.045.041l-59.907 59.907-11.836-27.585c-2.511-5.854-1.224-12.546 3.279-17.049zm-256.399-10.448c-16.204 9.355-36.375 8.185-51.389-2.983l-8.161-6.07 74.785-43.178-13.768 51.383zm12.735 34.378 6.977-26.039c.002-.007.004-.013.005-.02l17.207-64.215c.578.329 1.143.691 1.685 1.099l22.401 16.912c5.068 3.826 7.281 10.262 5.637 16.396l-4.815 17.971v.002l-19.365 72.271-24.048-17.974c-5.101-3.812-7.332-10.251-5.684-16.403zm71.366 53.793c-5.367 3.1-12.042 2.703-17.004-1.006l-7.38-5.516 7.238-27.011 50.219-28.994-13.768 51.383zm30.728 23.492 6.818-25.444c.003-.01.005-.02.008-.029l17.205-64.211c.579.329 1.144.691 1.685 1.1l22.4 16.91c5.068 3.827 7.281 10.263 5.637 16.396l-2.079 7.76c-.006.02-.014.039-.019.059l-21.927 81.834-24.043-17.971c-5.102-3.813-7.333-10.252-5.685-16.404zm71.366 53.794c-5.366 3.099-12.042 2.703-17.005-1.007l-7.75-5.793c.498-.807.894-1.695 1.152-2.658l6.293-23.486 50.223-28.996-13.61 50.794zm84.299-31.182-23.857 89.037-7.04-5.262c-15.422-11.527-22.167-30.992-17.184-49.591l1.331-4.966c.001-.003.002-.007.003-.01l17.043-63.605c.571.326 1.13.684 1.665 1.088l22.402 16.91c5.067 3.829 7.28 10.266 5.637 16.399zm20.242-8.569c-.603-4.72-2.154-9.259-4.56-13.363 1.683.245 3.396.375 5.131.375h5.312c-2.439 4.136-4.403 8.491-5.883 12.988zm89.167-17.844-65.18 65.18-3.466-8.077c-7.592-17.693-3.701-37.924 9.914-51.538l3.635-3.635c.003-.003.006-.006.009-.009l46.561-46.561c.332.568.636 1.157.898 1.774l10.945 25.848c2.476 5.848 1.174 12.528-3.316 17.018z"/><path id="XMLID_1166_" d="m303.107 72.006c2.64 0 5.21-1.07 7.08-2.93 1.86-1.86 2.92-4.44 2.92-7.07s-1.06-5.21-2.92-7.07c-1.87-1.86-4.45-2.93-7.08-2.93s-5.21 1.07-7.07 2.93-2.93 4.44-2.93 7.07c0 2.64 1.07 5.21 2.93 7.07s4.44 2.93 7.07 2.93z"/></svg>